<svg width="24" height="22" viewBox="0 0 24 22" fill="none" xmlns="http://www.w3.org/2000/svg">
<path d="M3.33801 6C4.21553 4.47928 5.47812 3.21651 6.99871 2.33877C8.51931 1.46103 10.2443 0.999289 12 1C13.7558 0.999289 15.4807 1.46103 17.0013 2.33877C18.5219 3.21651 19.7845 4.47928 20.662 6M3.33801 16C4.21553 17.5207 5.47812 18.7835 6.99871 19.6612C8.51931 20.539 10.2443 21.0007 12 21C13.7558 21.0007 15.4807 20.539 17.0013 19.6612C18.5219 18.7835 19.7845 17.5207 20.662 16H3.33801Z" stroke="#FFC857" stroke-width="1.5" stroke-linecap="round" stroke-linejoin="round"/>
<path d="M17 9L18.5 14L20 9L21.5 14L23 9M13 20.95C13 20.95 14.408 19.097 15.295 16L13 20.95ZM13 1.05C13 1.05 14.408 2.902 15.295 6L13 1.05ZM11 20.95C11 20.95 9.592 19.098 8.705 16L11 20.95ZM11 1.05C11 1.05 9.592 2.902 8.705 6L11 1.05ZM9 9L10.5 14L12 9L13.5 14L15 9H9ZM1 9L2.5 14L4 9L5.5 14L7 9H1Z" stroke="#FFC857" stroke-width="1.5" stroke-linecap="round" stroke-linejoin="round"/>
</svg>
